<mxfile host="app.diagrams.net" agent="Mozilla/5.0 (Windows NT 10.0; Win64; x64) AppleWebKit/537.36 (KHTML, like Gecko) Chrome/131.0.0.0 Safari/537.36" version="26.0.6" pages="4">
  <diagram name=" AS IS тех" id="05YcDMk2zU49pdxLe47u">
    <mxGraphModel dx="1086" dy="620" grid="1" gridSize="10" guides="1" tooltips="1" connect="1" arrows="1" fold="1" page="1" pageScale="1" pageWidth="827" pageHeight="1169" math="0" shadow="0">
      <root>
        <mxCell id="0" />
        <mxCell id="1" parent="0" />
        <mxCell id="zexHmz0dq2m3tFlJ6nS1-10" value="" style="group" vertex="1" connectable="0" parent="1">
          <mxGeometry x="80" y="80" width="120" height="60" as="geometry" />
        </mxCell>
        <mxCell id="zexHmz0dq2m3tFlJ6nS1-1" value="Получение обращения по телефону" style="rounded=0;whiteSpace=wrap;html=1;fontSize=10;" vertex="1" parent="zexHmz0dq2m3tFlJ6nS1-10">
          <mxGeometry width="120" height="60" as="geometry" />
        </mxCell>
        <mxCell id="zexHmz0dq2m3tFlJ6nS1-2" value="" style="endArrow=none;html=1;rounded=0;exitX=0;exitY=0.75;exitDx=0;exitDy=0;entryX=0.996;entryY=0.831;entryDx=0;entryDy=0;entryPerimeter=0;" edge="1" parent="zexHmz0dq2m3tFlJ6nS1-10" target="zexHmz0dq2m3tFlJ6nS1-1">
          <mxGeometry width="50" height="50" relative="1" as="geometry">
            <mxPoint y="50" as="sourcePoint" />
            <mxPoint x="100" y="50" as="targetPoint" />
          </mxGeometry>
        </mxCell>
        <mxCell id="zexHmz0dq2m3tFlJ6nS1-5" value="" style="endArrow=none;html=1;rounded=0;exitX=0.5;exitY=1;exitDx=0;exitDy=0;" edge="1" parent="zexHmz0dq2m3tFlJ6nS1-10" source="zexHmz0dq2m3tFlJ6nS1-1">
          <mxGeometry width="50" height="50" relative="1" as="geometry">
            <mxPoint x="120" y="70" as="sourcePoint" />
            <mxPoint x="60" y="50" as="targetPoint" />
            <Array as="points">
              <mxPoint x="60" y="50" />
            </Array>
          </mxGeometry>
        </mxCell>
        <mxCell id="zexHmz0dq2m3tFlJ6nS1-6" value="1.1" style="text;html=1;align=center;verticalAlign=middle;whiteSpace=wrap;rounded=0;fontSize=7;" vertex="1" parent="zexHmz0dq2m3tFlJ6nS1-10">
          <mxGeometry x="8" y="55" as="geometry" />
        </mxCell>
        <mxCell id="zexHmz0dq2m3tFlJ6nS1-11" value="" style="group" vertex="1" connectable="0" parent="1">
          <mxGeometry x="80" y="160" width="120" height="60" as="geometry" />
        </mxCell>
        <mxCell id="zexHmz0dq2m3tFlJ6nS1-12" value="Получение обращения по электронной почте" style="rounded=0;whiteSpace=wrap;html=1;fontSize=10;" vertex="1" parent="zexHmz0dq2m3tFlJ6nS1-11">
          <mxGeometry width="120" height="60" as="geometry" />
        </mxCell>
        <mxCell id="zexHmz0dq2m3tFlJ6nS1-13" value="" style="endArrow=none;html=1;rounded=0;exitX=0;exitY=0.75;exitDx=0;exitDy=0;entryX=0.996;entryY=0.831;entryDx=0;entryDy=0;entryPerimeter=0;" edge="1" parent="zexHmz0dq2m3tFlJ6nS1-11" target="zexHmz0dq2m3tFlJ6nS1-12">
          <mxGeometry width="50" height="50" relative="1" as="geometry">
            <mxPoint y="50" as="sourcePoint" />
            <mxPoint x="100" y="50" as="targetPoint" />
          </mxGeometry>
        </mxCell>
        <mxCell id="zexHmz0dq2m3tFlJ6nS1-14" value="" style="endArrow=none;html=1;rounded=0;exitX=0.5;exitY=1;exitDx=0;exitDy=0;" edge="1" parent="zexHmz0dq2m3tFlJ6nS1-11" source="zexHmz0dq2m3tFlJ6nS1-12">
          <mxGeometry width="50" height="50" relative="1" as="geometry">
            <mxPoint x="120" y="70" as="sourcePoint" />
            <mxPoint x="60" y="50" as="targetPoint" />
            <Array as="points">
              <mxPoint x="60" y="50" />
            </Array>
          </mxGeometry>
        </mxCell>
        <mxCell id="zexHmz0dq2m3tFlJ6nS1-15" value="1.2" style="text;html=1;align=center;verticalAlign=middle;whiteSpace=wrap;rounded=0;fontSize=7;" vertex="1" parent="zexHmz0dq2m3tFlJ6nS1-11">
          <mxGeometry x="8" y="55" as="geometry" />
        </mxCell>
        <mxCell id="zexHmz0dq2m3tFlJ6nS1-16" value="" style="group" vertex="1" connectable="0" parent="1">
          <mxGeometry x="80" y="240" width="120" height="60" as="geometry" />
        </mxCell>
        <mxCell id="zexHmz0dq2m3tFlJ6nS1-17" value="Получение обращение по мессенджеру" style="rounded=0;whiteSpace=wrap;html=1;fontSize=10;" vertex="1" parent="zexHmz0dq2m3tFlJ6nS1-16">
          <mxGeometry width="120" height="60" as="geometry" />
        </mxCell>
        <mxCell id="zexHmz0dq2m3tFlJ6nS1-18" value="" style="endArrow=none;html=1;rounded=0;exitX=0;exitY=0.75;exitDx=0;exitDy=0;entryX=0.996;entryY=0.831;entryDx=0;entryDy=0;entryPerimeter=0;" edge="1" parent="zexHmz0dq2m3tFlJ6nS1-16" target="zexHmz0dq2m3tFlJ6nS1-17">
          <mxGeometry width="50" height="50" relative="1" as="geometry">
            <mxPoint y="50" as="sourcePoint" />
            <mxPoint x="100" y="50" as="targetPoint" />
          </mxGeometry>
        </mxCell>
        <mxCell id="zexHmz0dq2m3tFlJ6nS1-19" value="" style="endArrow=none;html=1;rounded=0;exitX=0.5;exitY=1;exitDx=0;exitDy=0;" edge="1" parent="zexHmz0dq2m3tFlJ6nS1-16" source="zexHmz0dq2m3tFlJ6nS1-17">
          <mxGeometry width="50" height="50" relative="1" as="geometry">
            <mxPoint x="120" y="70" as="sourcePoint" />
            <mxPoint x="60" y="50" as="targetPoint" />
            <Array as="points">
              <mxPoint x="60" y="50" />
            </Array>
          </mxGeometry>
        </mxCell>
        <mxCell id="zexHmz0dq2m3tFlJ6nS1-20" value="1.3" style="text;html=1;align=center;verticalAlign=middle;whiteSpace=wrap;rounded=0;fontSize=7;" vertex="1" parent="zexHmz0dq2m3tFlJ6nS1-16">
          <mxGeometry x="8" y="55" as="geometry" />
        </mxCell>
        <mxCell id="zexHmz0dq2m3tFlJ6nS1-24" value="" style="group" vertex="1" connectable="0" parent="1">
          <mxGeometry x="260" y="170" width="40" height="40" as="geometry" />
        </mxCell>
        <mxCell id="zexHmz0dq2m3tFlJ6nS1-22" value="O" style="rounded=0;whiteSpace=wrap;html=1;" vertex="1" parent="zexHmz0dq2m3tFlJ6nS1-24">
          <mxGeometry width="40" height="40" as="geometry" />
        </mxCell>
        <mxCell id="zexHmz0dq2m3tFlJ6nS1-23" value="" style="endArrow=none;html=1;rounded=0;entryX=0.25;entryY=0;entryDx=0;entryDy=0;exitX=0.25;exitY=1;exitDx=0;exitDy=0;" edge="1" parent="zexHmz0dq2m3tFlJ6nS1-24" source="zexHmz0dq2m3tFlJ6nS1-22" target="zexHmz0dq2m3tFlJ6nS1-22">
          <mxGeometry width="50" height="50" relative="1" as="geometry">
            <mxPoint x="-30" y="50" as="sourcePoint" />
            <mxPoint x="20" as="targetPoint" />
          </mxGeometry>
        </mxCell>
        <mxCell id="zexHmz0dq2m3tFlJ6nS1-26" style="edgeStyle=orthogonalEdgeStyle;rounded=1;orthogonalLoop=1;jettySize=auto;html=1;entryX=0;entryY=0.5;entryDx=0;entryDy=0;curved=0;" edge="1" parent="1" source="zexHmz0dq2m3tFlJ6nS1-12" target="zexHmz0dq2m3tFlJ6nS1-22">
          <mxGeometry relative="1" as="geometry" />
        </mxCell>
        <mxCell id="zexHmz0dq2m3tFlJ6nS1-27" style="edgeStyle=orthogonalEdgeStyle;rounded=1;orthogonalLoop=1;jettySize=auto;html=1;entryX=0;entryY=0.5;entryDx=0;entryDy=0;curved=0;" edge="1" parent="1" source="zexHmz0dq2m3tFlJ6nS1-1" target="zexHmz0dq2m3tFlJ6nS1-22">
          <mxGeometry relative="1" as="geometry" />
        </mxCell>
        <mxCell id="zexHmz0dq2m3tFlJ6nS1-28" style="edgeStyle=orthogonalEdgeStyle;rounded=1;orthogonalLoop=1;jettySize=auto;html=1;entryX=0;entryY=0.5;entryDx=0;entryDy=0;curved=0;" edge="1" parent="1" source="zexHmz0dq2m3tFlJ6nS1-17" target="zexHmz0dq2m3tFlJ6nS1-22">
          <mxGeometry relative="1" as="geometry">
            <mxPoint x="230" y="190" as="targetPoint" />
          </mxGeometry>
        </mxCell>
        <mxCell id="zexHmz0dq2m3tFlJ6nS1-34" value="" style="group" vertex="1" connectable="0" parent="1">
          <mxGeometry x="10" y="170" width="40" height="40" as="geometry" />
        </mxCell>
        <mxCell id="zexHmz0dq2m3tFlJ6nS1-35" value="O" style="rounded=0;whiteSpace=wrap;html=1;" vertex="1" parent="zexHmz0dq2m3tFlJ6nS1-34">
          <mxGeometry width="40" height="40" as="geometry" />
        </mxCell>
        <mxCell id="zexHmz0dq2m3tFlJ6nS1-36" value="" style="endArrow=none;html=1;rounded=0;entryX=0.25;entryY=0;entryDx=0;entryDy=0;exitX=0.25;exitY=1;exitDx=0;exitDy=0;" edge="1" parent="zexHmz0dq2m3tFlJ6nS1-34" source="zexHmz0dq2m3tFlJ6nS1-35" target="zexHmz0dq2m3tFlJ6nS1-35">
          <mxGeometry width="50" height="50" relative="1" as="geometry">
            <mxPoint x="-30" y="50" as="sourcePoint" />
            <mxPoint x="20" as="targetPoint" />
          </mxGeometry>
        </mxCell>
        <mxCell id="zexHmz0dq2m3tFlJ6nS1-37" style="edgeStyle=orthogonalEdgeStyle;rounded=1;orthogonalLoop=1;jettySize=auto;html=1;exitX=0.5;exitY=0;exitDx=0;exitDy=0;entryX=0;entryY=0.5;entryDx=0;entryDy=0;curved=0;" edge="1" parent="1" source="zexHmz0dq2m3tFlJ6nS1-35" target="zexHmz0dq2m3tFlJ6nS1-1">
          <mxGeometry relative="1" as="geometry" />
        </mxCell>
        <mxCell id="zexHmz0dq2m3tFlJ6nS1-38" style="edgeStyle=orthogonalEdgeStyle;rounded=1;orthogonalLoop=1;jettySize=auto;html=1;entryX=0;entryY=0.5;entryDx=0;entryDy=0;curved=0;" edge="1" parent="1" source="zexHmz0dq2m3tFlJ6nS1-35" target="zexHmz0dq2m3tFlJ6nS1-12">
          <mxGeometry relative="1" as="geometry" />
        </mxCell>
        <mxCell id="zexHmz0dq2m3tFlJ6nS1-39" style="edgeStyle=orthogonalEdgeStyle;rounded=1;orthogonalLoop=1;jettySize=auto;html=1;exitX=0.5;exitY=1;exitDx=0;exitDy=0;entryX=0;entryY=0.5;entryDx=0;entryDy=0;curved=0;" edge="1" parent="1" source="zexHmz0dq2m3tFlJ6nS1-35" target="zexHmz0dq2m3tFlJ6nS1-17">
          <mxGeometry relative="1" as="geometry" />
        </mxCell>
        <mxCell id="Tizw14V2z8W6Vr6G9ozB-1" value="" style="group" vertex="1" connectable="0" parent="1">
          <mxGeometry x="340" y="160" width="90" height="60" as="geometry" />
        </mxCell>
        <mxCell id="Tizw14V2z8W6Vr6G9ozB-2" value="Обработка обращения" style="rounded=0;whiteSpace=wrap;html=1;fontSize=10;" vertex="1" parent="Tizw14V2z8W6Vr6G9ozB-1">
          <mxGeometry width="90" height="60" as="geometry" />
        </mxCell>
        <mxCell id="Tizw14V2z8W6Vr6G9ozB-3" value="" style="endArrow=none;html=1;rounded=0;exitX=0;exitY=0.75;exitDx=0;exitDy=0;entryX=0.996;entryY=0.831;entryDx=0;entryDy=0;entryPerimeter=0;" edge="1" parent="Tizw14V2z8W6Vr6G9ozB-1" target="Tizw14V2z8W6Vr6G9ozB-2">
          <mxGeometry width="50" height="50" relative="1" as="geometry">
            <mxPoint y="50" as="sourcePoint" />
            <mxPoint x="75" y="50" as="targetPoint" />
          </mxGeometry>
        </mxCell>
        <mxCell id="Tizw14V2z8W6Vr6G9ozB-4" value="" style="endArrow=none;html=1;rounded=0;exitX=0.5;exitY=1;exitDx=0;exitDy=0;" edge="1" parent="Tizw14V2z8W6Vr6G9ozB-1" source="Tizw14V2z8W6Vr6G9ozB-2">
          <mxGeometry width="50" height="50" relative="1" as="geometry">
            <mxPoint x="90" y="70" as="sourcePoint" />
            <mxPoint x="45" y="50" as="targetPoint" />
            <Array as="points">
              <mxPoint x="45" y="50" />
            </Array>
          </mxGeometry>
        </mxCell>
        <mxCell id="Tizw14V2z8W6Vr6G9ozB-5" value="1.4" style="text;html=1;align=center;verticalAlign=middle;whiteSpace=wrap;rounded=0;fontSize=7;" vertex="1" parent="Tizw14V2z8W6Vr6G9ozB-1">
          <mxGeometry x="6" y="55" as="geometry" />
        </mxCell>
        <mxCell id="Tizw14V2z8W6Vr6G9ozB-6" style="edgeStyle=orthogonalEdgeStyle;rounded=0;orthogonalLoop=1;jettySize=auto;html=1;entryX=0;entryY=0.5;entryDx=0;entryDy=0;" edge="1" parent="1" source="zexHmz0dq2m3tFlJ6nS1-22" target="Tizw14V2z8W6Vr6G9ozB-2">
          <mxGeometry relative="1" as="geometry" />
        </mxCell>
        <mxCell id="Tizw14V2z8W6Vr6G9ozB-7" value="" style="group" vertex="1" connectable="0" parent="1">
          <mxGeometry x="470" y="160" width="90" height="60" as="geometry" />
        </mxCell>
        <mxCell id="Tizw14V2z8W6Vr6G9ozB-18" style="edgeStyle=orthogonalEdgeStyle;rounded=0;orthogonalLoop=1;jettySize=auto;html=1;exitX=1;exitY=0.5;exitDx=0;exitDy=0;" edge="1" parent="Tizw14V2z8W6Vr6G9ozB-7" source="Tizw14V2z8W6Vr6G9ozB-8">
          <mxGeometry relative="1" as="geometry">
            <mxPoint x="120" y="30.142857142857167" as="targetPoint" />
          </mxGeometry>
        </mxCell>
        <mxCell id="Tizw14V2z8W6Vr6G9ozB-8" value="&lt;span&gt;Распределения&lt;/span&gt;&lt;br&gt;&lt;span&gt;обращения&lt;/span&gt;" style="rounded=0;whiteSpace=wrap;html=1;fontSize=9;" vertex="1" parent="Tizw14V2z8W6Vr6G9ozB-7">
          <mxGeometry width="90" height="60" as="geometry" />
        </mxCell>
        <mxCell id="Tizw14V2z8W6Vr6G9ozB-9" value="" style="endArrow=none;html=1;rounded=0;exitX=0;exitY=0.75;exitDx=0;exitDy=0;entryX=0.996;entryY=0.831;entryDx=0;entryDy=0;entryPerimeter=0;" edge="1" parent="Tizw14V2z8W6Vr6G9ozB-7" target="Tizw14V2z8W6Vr6G9ozB-8">
          <mxGeometry width="50" height="50" relative="1" as="geometry">
            <mxPoint y="50" as="sourcePoint" />
            <mxPoint x="75" y="50" as="targetPoint" />
          </mxGeometry>
        </mxCell>
        <mxCell id="Tizw14V2z8W6Vr6G9ozB-10" value="" style="endArrow=none;html=1;rounded=0;exitX=0.5;exitY=1;exitDx=0;exitDy=0;" edge="1" parent="Tizw14V2z8W6Vr6G9ozB-7" source="Tizw14V2z8W6Vr6G9ozB-8">
          <mxGeometry width="50" height="50" relative="1" as="geometry">
            <mxPoint x="90" y="70" as="sourcePoint" />
            <mxPoint x="45" y="50" as="targetPoint" />
            <Array as="points">
              <mxPoint x="45" y="50" />
            </Array>
          </mxGeometry>
        </mxCell>
        <mxCell id="Tizw14V2z8W6Vr6G9ozB-11" value="1.5" style="text;html=1;align=center;verticalAlign=middle;whiteSpace=wrap;rounded=0;fontSize=7;" vertex="1" parent="Tizw14V2z8W6Vr6G9ozB-7">
          <mxGeometry x="6" y="55" as="geometry" />
        </mxCell>
        <mxCell id="Tizw14V2z8W6Vr6G9ozB-12" style="edgeStyle=orthogonalEdgeStyle;rounded=0;orthogonalLoop=1;jettySize=auto;html=1;entryX=0;entryY=0.5;entryDx=0;entryDy=0;" edge="1" parent="1" source="Tizw14V2z8W6Vr6G9ozB-2" target="Tizw14V2z8W6Vr6G9ozB-8">
          <mxGeometry relative="1" as="geometry" />
        </mxCell>
        <mxCell id="Tizw14V2z8W6Vr6G9ozB-13" value="" style="group" vertex="1" connectable="0" parent="1">
          <mxGeometry x="590" y="160" width="90" height="60" as="geometry" />
        </mxCell>
        <mxCell id="Tizw14V2z8W6Vr6G9ozB-14" value="&lt;div&gt;Ожидания  выполнения&amp;nbsp;&lt;/div&gt;&lt;div&gt;обращения&lt;/div&gt;" style="rounded=0;whiteSpace=wrap;html=1;fontSize=10;" vertex="1" parent="Tizw14V2z8W6Vr6G9ozB-13">
          <mxGeometry width="90" height="60" as="geometry" />
        </mxCell>
        <mxCell id="Tizw14V2z8W6Vr6G9ozB-15" value="" style="endArrow=none;html=1;rounded=0;exitX=0;exitY=0.75;exitDx=0;exitDy=0;entryX=0.996;entryY=0.831;entryDx=0;entryDy=0;entryPerimeter=0;" edge="1" parent="Tizw14V2z8W6Vr6G9ozB-13" target="Tizw14V2z8W6Vr6G9ozB-14">
          <mxGeometry width="50" height="50" relative="1" as="geometry">
            <mxPoint y="50" as="sourcePoint" />
            <mxPoint x="75" y="50" as="targetPoint" />
          </mxGeometry>
        </mxCell>
        <mxCell id="Tizw14V2z8W6Vr6G9ozB-16" value="" style="endArrow=none;html=1;rounded=0;exitX=0.5;exitY=1;exitDx=0;exitDy=0;" edge="1" parent="Tizw14V2z8W6Vr6G9ozB-13" source="Tizw14V2z8W6Vr6G9ozB-14">
          <mxGeometry width="50" height="50" relative="1" as="geometry">
            <mxPoint x="90" y="70" as="sourcePoint" />
            <mxPoint x="45" y="50" as="targetPoint" />
            <Array as="points">
              <mxPoint x="45" y="50" />
            </Array>
          </mxGeometry>
        </mxCell>
        <mxCell id="Tizw14V2z8W6Vr6G9ozB-17" value="1.6" style="text;html=1;align=center;verticalAlign=middle;whiteSpace=wrap;rounded=0;fontSize=7;" vertex="1" parent="Tizw14V2z8W6Vr6G9ozB-13">
          <mxGeometry x="6" y="55" as="geometry" />
        </mxCell>
        <mxCell id="Tizw14V2z8W6Vr6G9ozB-20" value="" style="group" vertex="1" connectable="0" parent="1">
          <mxGeometry x="710" y="160" width="90" height="60" as="geometry" />
        </mxCell>
        <mxCell id="Tizw14V2z8W6Vr6G9ozB-21" value="Оповестить о проделанных работах" style="rounded=0;whiteSpace=wrap;html=1;fontSize=10;" vertex="1" parent="Tizw14V2z8W6Vr6G9ozB-20">
          <mxGeometry width="90" height="60" as="geometry" />
        </mxCell>
        <mxCell id="Tizw14V2z8W6Vr6G9ozB-22" value="" style="endArrow=none;html=1;rounded=0;exitX=0;exitY=0.75;exitDx=0;exitDy=0;entryX=0.996;entryY=0.831;entryDx=0;entryDy=0;entryPerimeter=0;" edge="1" parent="Tizw14V2z8W6Vr6G9ozB-20" target="Tizw14V2z8W6Vr6G9ozB-21">
          <mxGeometry width="50" height="50" relative="1" as="geometry">
            <mxPoint y="50" as="sourcePoint" />
            <mxPoint x="75" y="50" as="targetPoint" />
          </mxGeometry>
        </mxCell>
        <mxCell id="Tizw14V2z8W6Vr6G9ozB-23" value="" style="endArrow=none;html=1;rounded=0;exitX=0.5;exitY=1;exitDx=0;exitDy=0;" edge="1" parent="Tizw14V2z8W6Vr6G9ozB-20" source="Tizw14V2z8W6Vr6G9ozB-21">
          <mxGeometry width="50" height="50" relative="1" as="geometry">
            <mxPoint x="90" y="70" as="sourcePoint" />
            <mxPoint x="45" y="50" as="targetPoint" />
            <Array as="points">
              <mxPoint x="45" y="50" />
            </Array>
          </mxGeometry>
        </mxCell>
        <mxCell id="Tizw14V2z8W6Vr6G9ozB-24" value="1.7" style="text;html=1;align=center;verticalAlign=middle;whiteSpace=wrap;rounded=0;fontSize=7;" vertex="1" parent="Tizw14V2z8W6Vr6G9ozB-20">
          <mxGeometry x="6" y="55" as="geometry" />
        </mxCell>
        <mxCell id="Tizw14V2z8W6Vr6G9ozB-25" style="edgeStyle=orthogonalEdgeStyle;rounded=0;orthogonalLoop=1;jettySize=auto;html=1;entryX=0;entryY=0.5;entryDx=0;entryDy=0;" edge="1" parent="1" source="Tizw14V2z8W6Vr6G9ozB-14" target="Tizw14V2z8W6Vr6G9ozB-21">
          <mxGeometry relative="1" as="geometry" />
        </mxCell>
      </root>
    </mxGraphModel>
  </diagram>
  <diagram name="TO BE тех" id="QFckvuL94WvzT6Y1zji_">
    <mxGraphModel dx="814" dy="465" grid="1" gridSize="10" guides="1" tooltips="1" connect="1" arrows="1" fold="1" page="1" pageScale="1" pageWidth="827" pageHeight="1169" math="0" shadow="0">
      <root>
        <mxCell id="Y4BgIBW15gGoIBDbV4vL-0" />
        <mxCell id="Y4BgIBW15gGoIBDbV4vL-1" parent="Y4BgIBW15gGoIBDbV4vL-0" />
        <mxCell id="Y4BgIBW15gGoIBDbV4vL-2" value="" style="group" vertex="1" connectable="0" parent="Y4BgIBW15gGoIBDbV4vL-1">
          <mxGeometry x="80" y="160" width="120" height="60" as="geometry" />
        </mxCell>
        <mxCell id="Y4BgIBW15gGoIBDbV4vL-3" value="Получение обращения&amp;nbsp;&lt;br&gt;В ИС" style="rounded=0;whiteSpace=wrap;html=1;fontSize=10;" vertex="1" parent="Y4BgIBW15gGoIBDbV4vL-2">
          <mxGeometry width="120" height="60" as="geometry" />
        </mxCell>
        <mxCell id="Y4BgIBW15gGoIBDbV4vL-4" value="" style="endArrow=none;html=1;rounded=0;exitX=0;exitY=0.75;exitDx=0;exitDy=0;entryX=0.996;entryY=0.831;entryDx=0;entryDy=0;entryPerimeter=0;" edge="1" parent="Y4BgIBW15gGoIBDbV4vL-2" target="Y4BgIBW15gGoIBDbV4vL-3">
          <mxGeometry width="50" height="50" relative="1" as="geometry">
            <mxPoint y="50" as="sourcePoint" />
            <mxPoint x="100" y="50" as="targetPoint" />
          </mxGeometry>
        </mxCell>
        <mxCell id="Y4BgIBW15gGoIBDbV4vL-5" value="" style="endArrow=none;html=1;rounded=0;exitX=0.5;exitY=1;exitDx=0;exitDy=0;" edge="1" parent="Y4BgIBW15gGoIBDbV4vL-2" source="Y4BgIBW15gGoIBDbV4vL-3">
          <mxGeometry width="50" height="50" relative="1" as="geometry">
            <mxPoint x="120" y="70" as="sourcePoint" />
            <mxPoint x="60" y="50" as="targetPoint" />
            <Array as="points">
              <mxPoint x="60" y="50" />
            </Array>
          </mxGeometry>
        </mxCell>
        <mxCell id="Y4BgIBW15gGoIBDbV4vL-6" value="1.1" style="text;html=1;align=center;verticalAlign=middle;whiteSpace=wrap;rounded=0;fontSize=7;" vertex="1" parent="Y4BgIBW15gGoIBDbV4vL-2">
          <mxGeometry x="8" y="55" as="geometry" />
        </mxCell>
        <mxCell id="Y4BgIBW15gGoIBDbV4vL-35" value="" style="group;fontSize=9;" vertex="1" connectable="0" parent="Y4BgIBW15gGoIBDbV4vL-1">
          <mxGeometry x="240" y="160" width="90" height="60" as="geometry" />
        </mxCell>
        <mxCell id="Y4BgIBW15gGoIBDbV4vL-37" value="&lt;span&gt;Распределения&lt;/span&gt;&lt;br&gt;&lt;span&gt;обращения&lt;/span&gt;" style="rounded=0;whiteSpace=wrap;html=1;fontSize=9;" vertex="1" parent="Y4BgIBW15gGoIBDbV4vL-35">
          <mxGeometry width="90" height="60" as="geometry" />
        </mxCell>
        <mxCell id="Y4BgIBW15gGoIBDbV4vL-38" value="" style="endArrow=none;html=1;rounded=0;exitX=0;exitY=0.75;exitDx=0;exitDy=0;entryX=0.996;entryY=0.831;entryDx=0;entryDy=0;entryPerimeter=0;" edge="1" parent="Y4BgIBW15gGoIBDbV4vL-35" target="Y4BgIBW15gGoIBDbV4vL-37">
          <mxGeometry width="50" height="50" relative="1" as="geometry">
            <mxPoint y="50" as="sourcePoint" />
            <mxPoint x="75" y="50" as="targetPoint" />
          </mxGeometry>
        </mxCell>
        <mxCell id="Y4BgIBW15gGoIBDbV4vL-39" value="" style="endArrow=none;html=1;rounded=0;exitX=0.5;exitY=1;exitDx=0;exitDy=0;" edge="1" parent="Y4BgIBW15gGoIBDbV4vL-35" source="Y4BgIBW15gGoIBDbV4vL-37">
          <mxGeometry width="50" height="50" relative="1" as="geometry">
            <mxPoint x="90" y="70" as="sourcePoint" />
            <mxPoint x="45" y="50" as="targetPoint" />
            <Array as="points">
              <mxPoint x="45" y="50" />
            </Array>
          </mxGeometry>
        </mxCell>
        <mxCell id="Y4BgIBW15gGoIBDbV4vL-40" value="1.2" style="text;html=1;align=center;verticalAlign=middle;whiteSpace=wrap;rounded=0;fontSize=7;" vertex="1" parent="Y4BgIBW15gGoIBDbV4vL-35">
          <mxGeometry x="6" y="55" as="geometry" />
        </mxCell>
        <mxCell id="AgTyODGKreWlOe0oPCxZ-0" style="edgeStyle=orthogonalEdgeStyle;rounded=0;orthogonalLoop=1;jettySize=auto;html=1;entryX=0;entryY=0.5;entryDx=0;entryDy=0;" edge="1" parent="Y4BgIBW15gGoIBDbV4vL-1" source="Y4BgIBW15gGoIBDbV4vL-3" target="Y4BgIBW15gGoIBDbV4vL-37">
          <mxGeometry relative="1" as="geometry" />
        </mxCell>
      </root>
    </mxGraphModel>
  </diagram>
  <diagram name="AS IS исполнитель" id="Mo7KTVIfN1X7fsp5nhZs">
    <mxGraphModel dx="674" dy="385" grid="1" gridSize="10" guides="1" tooltips="1" connect="1" arrows="1" fold="1" page="1" pageScale="1" pageWidth="827" pageHeight="1169" math="0" shadow="0">
      <root>
        <mxCell id="PbqMgw-aEFEZwGyBnk1C-0" />
        <mxCell id="PbqMgw-aEFEZwGyBnk1C-1" parent="PbqMgw-aEFEZwGyBnk1C-0" />
        <mxCell id="PbqMgw-aEFEZwGyBnk1C-42" value="" style="group" vertex="1" connectable="0" parent="PbqMgw-aEFEZwGyBnk1C-1">
          <mxGeometry x="310" y="170" width="90" height="60" as="geometry" />
        </mxCell>
        <mxCell id="PbqMgw-aEFEZwGyBnk1C-43" value="&lt;div&gt;Выполнения&amp;nbsp;&lt;/div&gt;&lt;div&gt;обращения&lt;/div&gt;" style="rounded=0;whiteSpace=wrap;html=1;fontSize=10;" vertex="1" parent="PbqMgw-aEFEZwGyBnk1C-42">
          <mxGeometry width="90" height="60" as="geometry" />
        </mxCell>
        <mxCell id="PbqMgw-aEFEZwGyBnk1C-44" value="" style="endArrow=none;html=1;rounded=0;exitX=0;exitY=0.75;exitDx=0;exitDy=0;entryX=0.996;entryY=0.831;entryDx=0;entryDy=0;entryPerimeter=0;" edge="1" parent="PbqMgw-aEFEZwGyBnk1C-42" target="PbqMgw-aEFEZwGyBnk1C-43">
          <mxGeometry width="50" height="50" relative="1" as="geometry">
            <mxPoint y="50" as="sourcePoint" />
            <mxPoint x="75" y="50" as="targetPoint" />
          </mxGeometry>
        </mxCell>
        <mxCell id="PbqMgw-aEFEZwGyBnk1C-45" value="" style="endArrow=none;html=1;rounded=0;exitX=0.5;exitY=1;exitDx=0;exitDy=0;" edge="1" parent="PbqMgw-aEFEZwGyBnk1C-42" source="PbqMgw-aEFEZwGyBnk1C-43">
          <mxGeometry width="50" height="50" relative="1" as="geometry">
            <mxPoint x="90" y="70" as="sourcePoint" />
            <mxPoint x="45" y="50" as="targetPoint" />
            <Array as="points">
              <mxPoint x="45" y="50" />
            </Array>
          </mxGeometry>
        </mxCell>
        <mxCell id="PbqMgw-aEFEZwGyBnk1C-46" value="1.9" style="text;html=1;align=center;verticalAlign=middle;whiteSpace=wrap;rounded=0;fontSize=7;" vertex="1" parent="PbqMgw-aEFEZwGyBnk1C-42">
          <mxGeometry x="6" y="55" as="geometry" />
        </mxCell>
        <mxCell id="MQVf-_cxKaWXTbipSpbA-1" value="" style="group" vertex="1" connectable="0" parent="PbqMgw-aEFEZwGyBnk1C-1">
          <mxGeometry x="170" y="170" width="90" height="60" as="geometry" />
        </mxCell>
        <mxCell id="MQVf-_cxKaWXTbipSpbA-3" value="Получение&lt;br&gt;ТЗ и СЗ" style="rounded=0;whiteSpace=wrap;html=1;fontSize=10;" vertex="1" parent="MQVf-_cxKaWXTbipSpbA-1">
          <mxGeometry width="90" height="60" as="geometry" />
        </mxCell>
        <mxCell id="MQVf-_cxKaWXTbipSpbA-4" value="" style="endArrow=none;html=1;rounded=0;exitX=0;exitY=0.75;exitDx=0;exitDy=0;entryX=0.996;entryY=0.831;entryDx=0;entryDy=0;entryPerimeter=0;" edge="1" parent="MQVf-_cxKaWXTbipSpbA-1" target="MQVf-_cxKaWXTbipSpbA-3">
          <mxGeometry width="50" height="50" relative="1" as="geometry">
            <mxPoint y="50" as="sourcePoint" />
            <mxPoint x="75" y="50" as="targetPoint" />
          </mxGeometry>
        </mxCell>
        <mxCell id="MQVf-_cxKaWXTbipSpbA-5" value="" style="endArrow=none;html=1;rounded=0;exitX=0.5;exitY=1;exitDx=0;exitDy=0;" edge="1" parent="MQVf-_cxKaWXTbipSpbA-1" source="MQVf-_cxKaWXTbipSpbA-3">
          <mxGeometry width="50" height="50" relative="1" as="geometry">
            <mxPoint x="90" y="70" as="sourcePoint" />
            <mxPoint x="45" y="50" as="targetPoint" />
            <Array as="points">
              <mxPoint x="45" y="50" />
            </Array>
          </mxGeometry>
        </mxCell>
        <mxCell id="MQVf-_cxKaWXTbipSpbA-6" value="1.8" style="text;html=1;align=center;verticalAlign=middle;whiteSpace=wrap;rounded=0;fontSize=7;" vertex="1" parent="MQVf-_cxKaWXTbipSpbA-1">
          <mxGeometry x="6" y="55" as="geometry" />
        </mxCell>
        <mxCell id="MQVf-_cxKaWXTbipSpbA-2" style="edgeStyle=orthogonalEdgeStyle;rounded=0;orthogonalLoop=1;jettySize=auto;html=1;exitX=1;exitY=0.5;exitDx=0;exitDy=0;entryX=0;entryY=0.5;entryDx=0;entryDy=0;" edge="1" parent="PbqMgw-aEFEZwGyBnk1C-1" source="MQVf-_cxKaWXTbipSpbA-3" target="PbqMgw-aEFEZwGyBnk1C-43">
          <mxGeometry relative="1" as="geometry">
            <mxPoint x="290" y="200.14285714285717" as="targetPoint" />
          </mxGeometry>
        </mxCell>
        <mxCell id="Ls2nPaxDCmSy5AuUj9TO-0" value="" style="group" vertex="1" connectable="0" parent="PbqMgw-aEFEZwGyBnk1C-1">
          <mxGeometry x="430" y="170" width="90" height="60" as="geometry" />
        </mxCell>
        <mxCell id="Ls2nPaxDCmSy5AuUj9TO-1" value="Уведомить об&lt;br&gt;выполнении" style="rounded=0;whiteSpace=wrap;html=1;fontSize=10;" vertex="1" parent="Ls2nPaxDCmSy5AuUj9TO-0">
          <mxGeometry width="90" height="60" as="geometry" />
        </mxCell>
        <mxCell id="Ls2nPaxDCmSy5AuUj9TO-2" value="" style="endArrow=none;html=1;rounded=0;exitX=0;exitY=0.75;exitDx=0;exitDy=0;entryX=0.996;entryY=0.831;entryDx=0;entryDy=0;entryPerimeter=0;" edge="1" parent="Ls2nPaxDCmSy5AuUj9TO-0" target="Ls2nPaxDCmSy5AuUj9TO-1">
          <mxGeometry width="50" height="50" relative="1" as="geometry">
            <mxPoint y="50" as="sourcePoint" />
            <mxPoint x="75" y="50" as="targetPoint" />
          </mxGeometry>
        </mxCell>
        <mxCell id="Ls2nPaxDCmSy5AuUj9TO-3" value="" style="endArrow=none;html=1;rounded=0;exitX=0.5;exitY=1;exitDx=0;exitDy=0;" edge="1" parent="Ls2nPaxDCmSy5AuUj9TO-0" source="Ls2nPaxDCmSy5AuUj9TO-1">
          <mxGeometry width="50" height="50" relative="1" as="geometry">
            <mxPoint x="90" y="70" as="sourcePoint" />
            <mxPoint x="45" y="50" as="targetPoint" />
            <Array as="points">
              <mxPoint x="45" y="50" />
            </Array>
          </mxGeometry>
        </mxCell>
        <mxCell id="Ls2nPaxDCmSy5AuUj9TO-4" value="1.10" style="text;html=1;align=center;verticalAlign=middle;whiteSpace=wrap;rounded=0;fontSize=7;" vertex="1" parent="Ls2nPaxDCmSy5AuUj9TO-0">
          <mxGeometry x="8" y="55" as="geometry" />
        </mxCell>
        <mxCell id="Ls2nPaxDCmSy5AuUj9TO-5" style="edgeStyle=orthogonalEdgeStyle;rounded=0;orthogonalLoop=1;jettySize=auto;html=1;entryX=0;entryY=0.5;entryDx=0;entryDy=0;" edge="1" parent="PbqMgw-aEFEZwGyBnk1C-1" source="PbqMgw-aEFEZwGyBnk1C-43" target="Ls2nPaxDCmSy5AuUj9TO-1">
          <mxGeometry relative="1" as="geometry" />
        </mxCell>
      </root>
    </mxGraphModel>
  </diagram>
  <diagram name="AS IS Клиент" id="KlMnbKX-15ywV3tPIDKE">
    <mxGraphModel dx="674" dy="385" grid="1" gridSize="10" guides="1" tooltips="1" connect="1" arrows="1" fold="1" page="1" pageScale="1" pageWidth="827" pageHeight="1169" math="0" shadow="0">
      <root>
        <mxCell id="3Tdb1AluKHMyBcOd84Q8-0" />
        <mxCell id="3Tdb1AluKHMyBcOd84Q8-1" parent="3Tdb1AluKHMyBcOd84Q8-0" />
        <mxCell id="3Tdb1AluKHMyBcOd84Q8-2" value="" style="group" vertex="1" connectable="0" parent="3Tdb1AluKHMyBcOd84Q8-1">
          <mxGeometry x="310" y="170" width="90" height="60" as="geometry" />
        </mxCell>
        <mxCell id="3Tdb1AluKHMyBcOd84Q8-3" value="Ожидания&amp;nbsp;&lt;br&gt;выполнения" style="rounded=0;whiteSpace=wrap;html=1;fontSize=10;" vertex="1" parent="3Tdb1AluKHMyBcOd84Q8-2">
          <mxGeometry width="90" height="60" as="geometry" />
        </mxCell>
        <mxCell id="3Tdb1AluKHMyBcOd84Q8-4" value="" style="endArrow=none;html=1;rounded=0;exitX=0;exitY=0.75;exitDx=0;exitDy=0;entryX=0.996;entryY=0.831;entryDx=0;entryDy=0;entryPerimeter=0;" edge="1" parent="3Tdb1AluKHMyBcOd84Q8-2" target="3Tdb1AluKHMyBcOd84Q8-3">
          <mxGeometry width="50" height="50" relative="1" as="geometry">
            <mxPoint y="50" as="sourcePoint" />
            <mxPoint x="75" y="50" as="targetPoint" />
          </mxGeometry>
        </mxCell>
        <mxCell id="3Tdb1AluKHMyBcOd84Q8-5" value="" style="endArrow=none;html=1;rounded=0;exitX=0.5;exitY=1;exitDx=0;exitDy=0;" edge="1" parent="3Tdb1AluKHMyBcOd84Q8-2" source="3Tdb1AluKHMyBcOd84Q8-3">
          <mxGeometry width="50" height="50" relative="1" as="geometry">
            <mxPoint x="90" y="70" as="sourcePoint" />
            <mxPoint x="45" y="50" as="targetPoint" />
            <Array as="points">
              <mxPoint x="45" y="50" />
            </Array>
          </mxGeometry>
        </mxCell>
        <mxCell id="3Tdb1AluKHMyBcOd84Q8-6" value="1.12" style="text;html=1;align=center;verticalAlign=middle;whiteSpace=wrap;rounded=0;fontSize=7;" vertex="1" parent="3Tdb1AluKHMyBcOd84Q8-2">
          <mxGeometry x="9" y="55" as="geometry" />
        </mxCell>
        <mxCell id="3Tdb1AluKHMyBcOd84Q8-7" value="" style="group" vertex="1" connectable="0" parent="3Tdb1AluKHMyBcOd84Q8-1">
          <mxGeometry x="170" y="170" width="90" height="60" as="geometry" />
        </mxCell>
        <mxCell id="3Tdb1AluKHMyBcOd84Q8-8" value="Передача требовании" style="rounded=0;whiteSpace=wrap;html=1;fontSize=10;" vertex="1" parent="3Tdb1AluKHMyBcOd84Q8-7">
          <mxGeometry width="90" height="60" as="geometry" />
        </mxCell>
        <mxCell id="3Tdb1AluKHMyBcOd84Q8-9" value="" style="endArrow=none;html=1;rounded=0;exitX=0;exitY=0.75;exitDx=0;exitDy=0;entryX=0.996;entryY=0.831;entryDx=0;entryDy=0;entryPerimeter=0;" edge="1" parent="3Tdb1AluKHMyBcOd84Q8-7" target="3Tdb1AluKHMyBcOd84Q8-8">
          <mxGeometry width="50" height="50" relative="1" as="geometry">
            <mxPoint y="50" as="sourcePoint" />
            <mxPoint x="75" y="50" as="targetPoint" />
          </mxGeometry>
        </mxCell>
        <mxCell id="3Tdb1AluKHMyBcOd84Q8-10" value="" style="endArrow=none;html=1;rounded=0;exitX=0.5;exitY=1;exitDx=0;exitDy=0;" edge="1" parent="3Tdb1AluKHMyBcOd84Q8-7" source="3Tdb1AluKHMyBcOd84Q8-8">
          <mxGeometry width="50" height="50" relative="1" as="geometry">
            <mxPoint x="90" y="70" as="sourcePoint" />
            <mxPoint x="45" y="50" as="targetPoint" />
            <Array as="points">
              <mxPoint x="45" y="50" />
            </Array>
          </mxGeometry>
        </mxCell>
        <mxCell id="3Tdb1AluKHMyBcOd84Q8-11" value="1.11" style="text;html=1;align=center;verticalAlign=middle;whiteSpace=wrap;rounded=0;fontSize=7;" vertex="1" parent="3Tdb1AluKHMyBcOd84Q8-7">
          <mxGeometry x="9" y="55" as="geometry" />
        </mxCell>
        <mxCell id="3Tdb1AluKHMyBcOd84Q8-12" style="edgeStyle=orthogonalEdgeStyle;rounded=0;orthogonalLoop=1;jettySize=auto;html=1;exitX=1;exitY=0.5;exitDx=0;exitDy=0;entryX=0;entryY=0.5;entryDx=0;entryDy=0;" edge="1" parent="3Tdb1AluKHMyBcOd84Q8-1" source="3Tdb1AluKHMyBcOd84Q8-8" target="3Tdb1AluKHMyBcOd84Q8-3">
          <mxGeometry relative="1" as="geometry">
            <mxPoint x="290" y="200.14285714285717" as="targetPoint" />
          </mxGeometry>
        </mxCell>
      </root>
    </mxGraphModel>
  </diagram>
</mxfile>
